#!OML:ASF I:\Actors\actors\Patient Classification 2\Patient 1\Session 1\actor1.ASF
:FULLY-SPECIFIED
:DEGREES
375
root -1.01504 18.8044 5.61654 4.52319 10.8525 -1.67614
lowerback 9.9421 -0.907269 2.83443
upperback -0.711971 -0.778587 1.36962
thorax -6.35423 -0.452373 -0.0407269
lowerneck -18.5023 -5.262 -6.859
upperneck 15.0102 -6.64778 6.82103
head 8.15789 -2.8753 2.56361
rclavicle -1.1778e-014 -8.34896e-015
rhumerus 7.10644 33.1922 -48.7493
rradius 84.6681
rwrist -25.5351
rhand -0.793478 -44.8655
rfingers 7.12502
rthumb 24.8301 -73.2733
lclavicle -1.1778e-014 -8.34896e-015
lhumerus 14.5093 -36.1618 87.2591
lradius 75.7698
lwrist 42.51
lhand -23.6134 -12.2436
lfingers 7.12502
lthumb 2.85072 17.7171
rfemur 5.10205 -8.2845 17.2685
rtibia -6.36111e-015
rfoot -19.0292 -11.2765
rtoes 2.56074
lfemur -12.088 -7.40678 -10.0723
ltibia 21.4484
lfoot -16.508 6.41643
ltoes -56.645
376
root -1.01278 18.8033 5.6215 4.47436 10.6981 -1.70226
lowerback 9.91832 -0.964758 2.78418
upperback -0.723855 -0.863321 1.34784
thorax -6.35472 -0.492751 -0.0225298
lowerneck -18.5143 -5.14691 -6.73062
upperneck 15.1142 -6.53581 6.8494
head 8.18338 -2.81093 2.5675
rclavicle -5.96354e-016 -1.11319e-014
rhumerus 6.41216 33.8943 -47.8292
rradius 87.3063
rwrist -26.8187
rhand 0.148028 -44.9188
rfingers 7.12502
rthumb 25.7321 -73.1991
lclavicle -5.96354e-016 -1.11319e-014
lhumerus 14.0601 -36.3799 86.8625
lradius 76.6497
lwrist 42.5577
lhand -23.7842 -12.2454
lfingers 7.12502
lthumb 2.68581 17.7175
rfemur 5.14013 -8.12731 17.285
rtibia 0
rfoot -19.0353 -11.3358
rtoes 2.30601
lfemur -11.9582 -7.31924 -10.0656
ltibia 21.4155
lfoot -16.5333 6.45273
ltoes -56.622
377
root -1.01182 18.8024 5.62492 4.42264 10.5085 -1.73372
lowerback 9.90399 -1.01624 2.73009
upperback -0.729185 -0.940147 1.32836
thorax -6.35326 -0.529014 -0.000941586
lowerneck -18.5101 -5.02842 -6.53598
upperneck 15.1931 -6.42294 6.80862
head 8.19289 -2.74965 2.53763
rclavicle -2.13694e-015 1.55052e-014
rhumerus 5.98734 34.3859 -46.9438
rradius 89.7139
rwrist -28.5243
rhand 0.999983 -44.7464
rfingers 7.12502
rthumb 26.5478 -72.906
lclavicle -2.13694e-015 1.55052e-014
lhumerus 13.642 -36.62 86.3894
lradius 77.5651
lwrist 42.6178
lhand -24.006 -12.2847
lfingers 7.12502
lthumb 2.47156 17.6807
rfemur 5.17515 -7.93487 17.3093
rtibia -1.59028e-015
rfoot -19.0891 -11.3542
rtoes 2.31766
lfemur -11.8304 -7.09525 -10.0529
ltibia 21.3782
lfoot -16.5112 6.41134
ltoes -56.6725
378
root -1.01283 18.802 5.6282 4.42665 10.263 -1.70511
lowerback 9.82892 -1.0546 2.59324
upperback -0.7364 -1.01178 1.30775
thorax -6.31751 -0.55979 0.06398
lowerneck -18.5338 -4.91592 -6.3605
upperneck 15.2994 -6.30808 6.74303
head 8.21627 -2.69016 2.50236
rclavicle -8.34896e-015 -5.96354e-016
rhumerus 5.78254 34.7563 -46.0706
rradius 91.9476
rwrist -30.2987
rhand 1.58755 -44.4801
rfingers 7.12502
rthumb 27.1101 -72.5534
lclavicle -8.34896e-015 -5.96354e-016
lhumerus 13.2052 -36.8319 85.9181
lradius 78.5031
lwrist 42.6603
lhand -24.1815 -12.4054
lfingers 7.12502
lthumb 2.30209 17.5619
rfemur 5.15759 -7.69333 17.2781
rtibia -1.59028e-015
rfoot -19.1279 -11.3643
rtoes 2.3644
lfemur -11.7338 -7.04448 -10.0854
ltibia 21.3412
lfoot -16.6275 6.5057
ltoes -56.6124
379
root -1.01354 18.8012 5.63102 4.41928 9.98014 -1.67098
lowerback 9.76996 -1.0933 2.45894
upperback -0.748806 -1.08248 1.28961
thorax -6.29612 -0.590309 0.130197
lowerneck -18.5229 -4.78095 -6.23225
upperneck 15.4104 -6.15841 6.71049
head 8.23584 -2.61436 2.49104
rclavicle 4.16205e-014 1.98785e-014
rhumerus 5.80509 35.0367 -45.1956
rradius 94.0595
rwrist -31.9697
rhand 1.91203 -44.6371
rfingers 7.12502
rthumb 27.4205 -72.6616
lclavicle 4.16205e-014 1.98785e-014
lhumerus 12.6303 -37.026 85.4766
lradius 79.5796
lwrist 42.7176
lhand -24.3244 -12.3856
lfingers 7.12502
lthumb 2.16408 17.5832
rfemur 5.14335 -7.41434 17.2387
rtibia -3.18055e-015
rfoot -19.1454 -11.3897
rtoes 2.3913
lfemur -11.6037 -7.02367 -10.1269
ltibia 21.2954
lfoot -16.7565 6.64428
ltoes -56.5632
